{
  "accessors": [
    {
      "bufferView": 2,
      "componentType": 5126,
      "count": 62036,
      "max": [
        0.96679997444152832,
        -0.49709999561309814,
        2.6394000053405762
      ],
      "min": [
        -1.1349999904632568,
        -0.90750002861022949,
        -2.2978999614715576
      ],
      "type": "VEC3"
    },
    {
      "bufferView": 2,
      "byteOffset": 744432,
      "componentType": 5126,
      "count": 62036,
      "max": [
        0.99999994039535522,
        1,
        0.99998855590820312
      ],
      "min": [
        -0.99999868869781494,
        -1,
        -0.99999922513961792
      ],
      "type": "VEC3"
    },
    {
      "bufferView": 3,
      "componentType": 5126,
      "count": 62036,
      "max": [
        0.99995684623718262,
        0.99999946355819702,
        0.99961984157562256,
        1
      ],
      "min": [
        -0.99998390674591064,
        -0.99999809265136719,
        -0.99990195035934448,
        -1
      ],
      "type": "VEC4"
    },
    {
      "bufferView": 3,
      "byteOffset": 992576,
      "componentType": 5126,
      "count": 62036,
      "max": [
        0.99607843160629272,
        0.99607843160629272,
        0.99607843160629272,
        1
      ],
      "min": [
        0.054901961237192154,
        0.047058824449777603,
        0.019607843831181526,
        1
      ],
      "type": "VEC4"
    },
    {
      "bufferView": 1,
      "componentType": 5126,
      "count": 62036,
      "max": [
        0.76599997282028198,
        0.99989998340606689
      ],
      "min": [
        9.9999997473787516e-05,
        9.9999997473787516e-05
      ],
      "type": "VEC2"
    },
    {
      "bufferView": 0,
      "componentType": 5125,
      "count": 239955,
      "max": [
        62035
      ],
      "min": [
        0
      ],
      "type": "SCALAR"
    }
  ],
  "asset": {
    "extras": {
      "author": "Scottish Maritime Museum (https://sketchfab.com/ScottishMaritimeMuseum)",
      "license": "CC0-1.0 (http://creativecommons.org/publicdomain/zero/1.0/)",
      "source": "https://sketchfab.com/3d-models/mary-chalmers-7a7fd136ff5c470784b908960601b3b9",
      "title": "\"Mary Chalmers\""
    },
    "generator": "Sketchfab-7.80.0",
    "version": "2.0"
  },
  "bufferViews": [
    {
      "buffer": 0,
      "byteLength": 959820,
      "byteOffset": 0,
      "name": "floatBufferViews",
      "target": 34963
    },
    {
      "buffer": 0,
      "byteLength": 496288,
      "byteOffset": 959820,
      "byteStride": 8,
      "name": "floatBufferViews",
      "target": 34962
    },
    {
      "buffer": 0,
      "byteLength": 1488864,
      "byteOffset": 1456108,
      "byteStride": 12,
      "name": "floatBufferViews",
      "target": 34962
    },
    {
      "buffer": 0,
      "byteLength": 1985152,
      "byteOffset": 2944972,
      "byteStride": 16,
      "name": "floatBufferViews",
      "target": 34962
    }
  ],
  "buffers": [
    {
      "byteLength": 4930124,
      "uri": "scene.bin"
    }
  ],
  "images": [
    {
      "uri": "textures/80KfromRC_2_Material_u1_v1_baseColor.png"
    },
    {
      "uri": "textures/80KfromRC_2_Material_u1_v1_normal.png"
    }
  ],
  "materials": [
    {
      "doubleSided": true,
      "name": "80KfromRC_2_Material_u1_v1",
      "normalTexture": {
        "index": 1,
        "scale": 1,
        "texCoord": 0
      },
      "pbrMetallicRoughness": {
        "baseColorFactor": [
          1,
          1,
          1,
          1
        ],
        "baseColorTexture": {
          "index": 0,
          "texCoord": 0
        },
        "metallicFactor": 0,
        "roughnessFactor": 0.59999999999999998
      }
    }
  ],
  "meshes": [
    {
      "primitives": [
        {
          "attributes": {
            "COLOR_0": 3,
            "NORMAL": 1,
            "POSITION": 0,
            "TANGENT": 2,
            "TEXCOORD_0": 4
          },
          "indices": 5,
          "material": 0,
          "mode": 4
        }
      ]
    }
  ],
  "nodes": [
    {
      "children": [
        1
      ],
      "name": "RootNode (gltf orientation matrix)",
      "rotation": [
        -0.70710678118654746,
        -0,
        -0,
        0.70710678118654757
      ]
    },
    {
      "children": [
        2
      ],
      "matrix": [
        0.97830349206924438,
        0.20717687904834747,
        0,
        0,
        0,
        0,
        -1,
        0,
        -0.20717687904834747,
        0.97830349206924438,
        0,
        0,
        0.033550657331943512,
        -0.85192114114761353,
        -0.53155052661895752,
        1
      ],
      "name": "RootNode (model correction matrix)"
    },
    {
      "children": [
        3
      ],
      "name": "MaryChalmers.obj.cleaner.materialmerger.gles"
    },
    {
      "mesh": 0,
      "name": ""
    }
  ],
  "samplers": [
    {
      "magFilter": 9729,
      "minFilter": 9987,
      "wrapS": 10497,
      "wrapT": 10497
    }
  ],
  "scene": 0,
  "scenes": [
    {
      "name": "OSG_Scene",
      "nodes": [
        0
      ]
    }
  ],
  "textures": [
    {
      "sampler": 0,
      "source": 0
    },
    {
      "sampler": 0,
      "source": 1
    }
  ]
}

