{
  "accessors": [
    {
      "bufferView": 2,
      "componentType": 5126,
      "count": 65532,
      "max": [
        0.10870113223791122,
        0.17713749408721924,
        -3.5870802402496338
      ],
      "min": [
        -0.34519499540328979,
        -0.46493911743164062,
        -4.0971574783325195
      ],
      "type": "VEC3"
    },
    {
      "bufferView": 2,
      "byteOffset": 786384,
      "componentType": 5126,
      "count": 65532,
      "max": [
        0.9999116063117981,
        0.99949824810028076,
        0.9999268651008606
      ],
      "min": [
        -0.99999821186065674,
        -0.9994465708732605,
        -0.99994337558746338
      ],
      "type": "VEC3"
    },
    {
      "bufferView": 3,
      "componentType": 5126,
      "count": 65532,
      "max": [
        0.99999880790710449,
        0.99972742795944214,
        0.99997210502624512,
        1
      ],
      "min": [
        -0.99838119745254517,
        -0.9999995231628418,
        -0.99997484683990479,
        -1
      ],
      "type": "VEC4"
    },
    {
      "bufferView": 1,
      "componentType": 5126,
      "count": 65532,
      "max": [
        0.84656602144241333,
        1
      ],
      "min": [
        0,
        0.01242700032889843
      ],
      "type": "VEC2"
    },
    {
      "bufferView": 1,
      "byteOffset": 524256,
      "componentType": 5126,
      "count": 65532,
      "max": [
        0.84656602144241333,
        1
      ],
      "min": [
        0,
        0.01242700032889843
      ],
      "type": "VEC2"
    },
    {
      "bufferView": 0,
      "componentType": 5125,
      "count": 373674,
      "max": [
        65531
      ],
      "min": [
        0
      ],
      "type": "SCALAR"
    },
    {
      "bufferView": 2,
      "byteOffset": 1572768,
      "componentType": 5126,
      "count": 65532,
      "max": [
        0.19031807780265808,
        0.11934763193130493,
        -3.4928648471832275
      ],
      "min": [
        -0.42255330085754395,
        -0.49551510810852051,
        -3.9864754676818848
      ],
      "type": "VEC3"
    },
    {
      "bufferView": 2,
      "byteOffset": 2359152,
      "componentType": 5126,
      "count": 65532,
      "max": [
        0.99999165534973145,
        0.99999988079071045,
        0.99995911121368408
      ],
      "min": [
        -0.99997609853744507,
        -0.99990946054458618,
        -0.99998438358306885
      ],
      "type": "VEC3"
    },
    {
      "bufferView": 3,
      "byteOffset": 1048512,
      "componentType": 5126,
      "count": 65532,
      "max": [
        0.99999755620956421,
        0.99989283084869385,
        0.99998396635055542,
        1
      ],
      "min": [
        -0.99978160858154297,
        -0.99991804361343384,
        -0.99997156858444214,
        -1
      ],
      "type": "VEC4"
    },
    {
      "bufferView": 1,
      "byteOffset": 1048512,
      "componentType": 5126,
      "count": 65532,
      "max": [
        0.9718480110168457,
        0.9998360276222229
      ],
      "min": [
        0.0078950002789497375,
        0.0033899999689310789
      ],
      "type": "VEC2"
    },
    {
      "bufferView": 1,
      "byteOffset": 1572768,
      "componentType": 5126,
      "count": 65532,
      "max": [
        0.9718480110168457,
        0.9998360276222229
      ],
      "min": [
        0.0078950002789497375,
        0.0033899999689310789
      ],
      "type": "VEC2"
    },
    {
      "bufferView": 0,
      "byteOffset": 1494696,
      "componentType": 5125,
      "count": 350967,
      "max": [
        65531
      ],
      "min": [
        0
      ],
      "type": "SCALAR"
    },
    {
      "bufferView": 2,
      "byteOffset": 3145536,
      "componentType": 5126,
      "count": 18076,
      "max": [
        0.15018478035926819,
        -0.36290329694747925,
        -3.4904799461364746
      ],
      "min": [
        -0.43013677000999451,
        -0.49551510810852051,
        -4.0675802230834961
      ],
      "type": "VEC3"
    },
    {
      "bufferView": 2,
      "byteOffset": 3362448,
      "componentType": 5126,
      "count": 18076,
      "max": [
        0.99951177835464478,
        0.99999576807022095,
        0.99996024370193481
      ],
      "min": [
        -0.99939346313476562,
        -0.99990946054458618,
        -0.99995237588882446
      ],
      "type": "VEC3"
    },
    {
      "bufferView": 3,
      "byteOffset": 2097024,
      "componentType": 5126,
      "count": 18076,
      "max": [
        0.99927449226379395,
        0.99979716539382935,
        0.9995085597038269,
        1
      ],
      "min": [
        -0.99955487251281738,
        -0.99999195337295532,
        -0.9997251033782959,
        -1
      ],
      "type": "VEC4"
    },
    {
      "bufferView": 1,
      "byteOffset": 2097024,
      "componentType": 5126,
      "count": 18076,
      "max": [
        0.91546499729156494,
        0.99885100126266479
      ],
      "min": [
        0.0098249996080994606,
        0.00054600002476945519
      ],
      "type": "VEC2"
    },
    {
      "bufferView": 1,
      "byteOffset": 2241632,
      "componentType": 5126,
      "count": 18076,
      "max": [
        0.91546499729156494,
        0.99885100126266479
      ],
      "min": [
        0.0098249996080994606,
        0.00054600002476945519
      ],
      "type": "VEC2"
    },
    {
      "bufferView": 0,
      "byteOffset": 2898564,
      "componentType": 5125,
      "count": 92601,
      "max": [
        18075
      ],
      "min": [
        0
      ],
      "type": "SCALAR"
    }
  ],
  "asset": {
    "extras": {
      "author": "Scottish Maritime Museum (https://sketchfab.com/ScottishMaritimeMuseum)",
      "license": "CC0-1.0 (http://creativecommons.org/publicdomain/zero/1.0/)",
      "source": "https://sketchfab.com/3d-models/silent-monitor-a8078c7542b747e5aca777e970ac0105",
      "title": "Silent Monitor"
    },
    "generator": "Sketchfab-7.80.0",
    "version": "2.0"
  },
  "bufferViews": [
    {
      "buffer": 0,
      "byteLength": 3268968,
      "byteOffset": 0,
      "name": "floatBufferViews",
      "target": 34963
    },
    {
      "buffer": 0,
      "byteLength": 2386240,
      "byteOffset": 3268968,
      "byteStride": 8,
      "name": "floatBufferViews",
      "target": 34962
    },
    {
      "buffer": 0,
      "byteLength": 3579360,
      "byteOffset": 5655208,
      "byteStride": 12,
      "name": "floatBufferViews",
      "target": 34962
    },
    {
      "buffer": 0,
      "byteLength": 2386240,
      "byteOffset": 9234568,
      "byteStride": 16,
      "name": "floatBufferViews",
      "target": 34962
    }
  ],
  "buffers": [
    {
      "byteLength": 11620808,
      "uri": "scene.bin"
    }
  ],
  "images": [
    {
      "uri": "textures/NewLanark2_baseColor.png"
    },
    {
      "uri": "textures/NewLanark2_normal.png"
    }
  ],
  "materials": [
    {
      "doubleSided": true,
      "emissiveFactor": [
        0,
        0,
        0
      ],
      "name": "NewLanark2",
      "normalTexture": {
        "index": 1,
        "scale": 0.67443181818181819,
        "texCoord": 1
      },
      "pbrMetallicRoughness": {
        "baseColorFactor": [
          1,
          1,
          1,
          1
        ],
        "baseColorTexture": {
          "index": 0,
          "texCoord": 0
        },
        "metallicFactor": 0,
        "roughnessFactor": 1
      }
    }
  ],
  "meshes": [
    {
      "name": "default001_NewLanark2_0",
      "primitives": [
        {
          "attributes": {
            "NORMAL": 1,
            "POSITION": 0,
            "TANGENT": 2,
            "TEXCOORD_0": 3,
            "TEXCOORD_1": 4
          },
          "indices": 5,
          "material": 0,
          "mode": 4
        }
      ]
    },
    {
      "name": "default001_NewLanark2_0",
      "primitives": [
        {
          "attributes": {
            "NORMAL": 7,
            "POSITION": 6,
            "TANGENT": 8,
            "TEXCOORD_0": 9,
            "TEXCOORD_1": 10
          },
          "indices": 11,
          "material": 0,
          "mode": 4
        }
      ]
    },
    {
      "name": "default001_NewLanark2_0",
      "primitives": [
        {
          "attributes": {
            "NORMAL": 13,
            "POSITION": 12,
            "TANGENT": 14,
            "TEXCOORD_0": 15,
            "TEXCOORD_1": 16
          },
          "indices": 17,
          "material": 0,
          "mode": 4
        }
      ]
    }
  ],
  "nodes": [
    {
      "children": [
        1
      ],
      "name": "RootNode (gltf orientation matrix)",
      "rotation": [
        -0.70710678118654746,
        -0,
        -0,
        0.70710678118654757
      ]
    },
    {
      "children": [
        2
      ],
      "matrix": [
        0.075015954673290253,
        -0.99673974514007568,
        0.029706206172704697,
        0,
        0.2013857513666153,
        0.044319421052932739,
        0.97850883007049561,
        0,
        -0.97663521766662598,
        -0.067421361804008484,
        0.2040538489818573,
        0,
        -3.7344319820404053,
        -0.37682017683982849,
        -2.8329093456268311,
        1
      ],
      "name": "RootNode (model correction matrix)"
    },
    {
      "children": [
        3
      ],
      "matrix": [
        1,
        0,
        0,
        0,
        0,
        0,
        1,
        0,
        0,
        -1,
        0,
        0,
        0,
        0,
        0,
        1
      ],
      "name": "8224259708604362a3a30bb0d5536356.fbx"
    },
    {
      "children": [
        4
      ],
      "name": "RootNode"
    },
    {
      "children": [
        5,
        6,
        7
      ],
      "matrix": [
        1,
        0,
        0,
        0,
        0,
        2.2204460492503131e-16,
        -1,
        0,
        0,
        1,
        2.2204460492503131e-16,
        0,
        0,
        0,
        0,
        1
      ],
      "name": "default001"
    },
    {
      "mesh": 0,
      "name": "default001_NewLanark2_0"
    },
    {
      "mesh": 1,
      "name": "default001_NewLanark2_0"
    },
    {
      "mesh": 2,
      "name": "default001_NewLanark2_0"
    }
  ],
  "samplers": [
    {
      "magFilter": 9729,
      "minFilter": 9987,
      "wrapS": 10497,
      "wrapT": 10497
    }
  ],
  "scene": 0,
  "scenes": [
    {
      "name": "OSG_Scene",
      "nodes": [
        0
      ]
    }
  ],
  "textures": [
    {
      "sampler": 0,
      "source": 0
    },
    {
      "sampler": 0,
      "source": 1
    }
  ]
}

